<svg width="24" height="24" viewBox="0 0 24 24" fill="none" xmlns="http://www.w3.org/2000/svg">
<path d="M9.03001 13.9999C8.64001 13.4299 8.42001 12.7399 8.42001 11.9999C8.42001 10.0199 10.02 8.41992 12 8.41992C13.98 8.41992 15.58 10.0199 15.58 11.9999C15.58 13.9799 13.98 15.5799 12 15.5799" stroke="#292D32" stroke-width="1.5" stroke-linecap="round" stroke-linejoin="round"/>
<path d="M17.56 5.57998C15.87 4.37998 13.97 3.72998 12 3.72998C8.47 3.72998 5.18 5.80998 2.89 9.40998C1.99 10.82 1.99 13.19 2.89 14.6C5.18 18.2 8.47 20.28 12 20.28C15.53 20.28 18.82 18.2 21.11 14.6C22.01 13.19 22.01 10.82 21.11 9.40998" stroke="#292D32" stroke-width="1.5" stroke-linecap="round" stroke-linejoin="round"/>
</svg>
