<svg width="360" height="113" viewBox="0 0 360 113" fill="none" xmlns="http://www.w3.org/2000/svg">
<path d="M0 63C0 46.4315 13.4315 33 30 33H330C346.569 33 360 46.4315 360 63V83C360 99.5685 346.569 113 330 113H30C13.4314 113 0 99.5685 0 83V63Z" fill="#2B2D40"/>
<path d="M179.751 0.00508971C147.174 -0.425443 48.5191 26.5811 21.7587 34.0868C20.6432 34.3997 20.938 35.9998 22.0966 35.9998L337.684 36C338.847 36 339.138 34.3881 338.015 34.0824C310.865 26.6906 212.248 0.434562 179.751 0.00508971Z" fill="#2B2D40"/>
</svg>
